<svg id="Layer_1" data-name="Layer 1" xmlns="http://www.w3.org/2000/svg" viewBox="0 0 300 300"><defs><style>.cls-1{fill:#97e3e7;}.cls-2{fill:#1b9be2;}.cls-3{fill:#eade90;}.cls-4{fill:#deab3a;}</style></defs><path class="cls-1" d="M94.18,174,19.1,254.22a13.14,13.14,0,0,0,.3,18.28L23.88,277a13.13,13.13,0,0,0,18.59,0l71.13-71.13a13.13,13.13,0,0,0-.15-18.73l-16-15.52Z"/><path class="cls-2" d="M33.18,287a19.28,19.28,0,0,1-13.66-5.64L15,276.86A19.23,19.23,0,0,1,14.6,250l75.07-80.18a6.06,6.06,0,0,1,.81-.71l3.25-2.44a6.16,6.16,0,0,1,8,.5l16,15.51a19.3,19.3,0,0,1,.22,27.53L46.83,281.35A19.25,19.25,0,0,1,33.18,287Zm64-107.09L23.6,258.43a7,7,0,0,0,.16,9.71l4.49,4.48a7,7,0,0,0,9.86,0l71.13-71.13a7,7,0,0,0-.08-9.94Z"/><path class="cls-3" d="M96.62,151.27,228.19,21.84a25.56,25.56,0,0,1,36,.15l10.57,10.56a25.57,25.57,0,0,1-.2,36.35L257.07,86,141.35,199.25H119.79l-25-28.06Z"/><path class="cls-4" d="M141.35,205.42H119.8a6.16,6.16,0,0,1-4.61-2.07l-25-28a6.17,6.17,0,0,1-1.54-4.67l1.84-19.93a6.13,6.13,0,0,1,1.81-3.83L223.87,17.44a31.82,31.82,0,0,1,44.68.19l10.57,10.56a31.72,31.72,0,0,1-.25,45.11L145.66,203.66A6.15,6.15,0,0,1,141.35,205.42Zm-18.79-12.34h16.27L270.24,64.49a19.39,19.39,0,0,0,.16-27.58L259.83,26.35a19.43,19.43,0,0,0-27.31-.11l-130,127.84-1.38,15Z"/><line class="cls-3" x1="194.82" y1="100.44" x2="131.18" y2="163.87"/><path class="cls-4" d="M131.18,170a6.16,6.16,0,0,1-4.35-10.53l63.64-63.44a6.17,6.17,0,0,1,8.71,8.74l-63.64,63.43A6.16,6.16,0,0,1,131.18,170Z"/><line class="cls-3" x1="212.51" y1="82.14" x2="228.37" y2="67.5"/><path class="cls-4" d="M212.51,88.3a6.17,6.17,0,0,1-4.18-10.7L224.19,63A6.17,6.17,0,0,1,232.55,72L216.69,86.67A6.14,6.14,0,0,1,212.51,88.3Z"/><line class="cls-1" x1="29.92" y1="244.8" x2="52.7" y2="267.57"/><path class="cls-2" d="M52.7,273.74a6.12,6.12,0,0,1-4.36-1.81L25.56,249.16a6.17,6.17,0,0,1,8.72-8.72l22.78,22.77a6.17,6.17,0,0,1-4.36,10.53Z"/><line class="cls-1" x1="45.38" y1="228.53" x2="68.15" y2="251.3"/><path class="cls-2" d="M68.15,257.47a6.12,6.12,0,0,1-4.36-1.81L41,232.89a6.17,6.17,0,1,1,8.72-8.72l22.77,22.77a6.17,6.17,0,0,1-4.36,10.53Z"/><line class="cls-1" x1="60.83" y1="212.27" x2="83.6" y2="235.04"/><path class="cls-2" d="M83.6,241.21a6.13,6.13,0,0,1-4.36-1.81L56.47,216.63a6.17,6.17,0,1,1,8.72-8.72L88,230.68a6.17,6.17,0,0,1-4.36,10.53Z"/><line class="cls-1" x1="74.66" y1="197.63" x2="97.43" y2="220.4"/><path class="cls-2" d="M97.43,226.57a6.16,6.16,0,0,1-4.36-1.81L70.29,202A6.17,6.17,0,1,1,79,193.27L101.79,216a6.17,6.17,0,0,1-4.36,10.53Z"/><line class="cls-1" x1="89.3" y1="184.61" x2="112.07" y2="207.39"/><path class="cls-2" d="M112.07,213.56a6.16,6.16,0,0,1-4.36-1.81L84.93,189a6.17,6.17,0,0,1,8.73-8.72L116.43,203a6.17,6.17,0,0,1-4.36,10.53Z"/><path class="cls-3" d="M49.24,270.21,42.47,277a13.13,13.13,0,0,1-18.59,0L19.4,272.5a13.14,13.14,0,0,1-.3-18.28l7.57-8.09Z"/><path class="cls-4" d="M33.18,287a19.28,19.28,0,0,1-13.66-5.64L15,276.86A19.23,19.23,0,0,1,14.6,250l7.57-8.09a6.35,6.35,0,0,1,9,0L53.74,266a6.16,6.16,0,0,1-.14,8.58l-6.77,6.77A19.25,19.25,0,0,1,33.18,287Zm-6.5-31.84-3.08,3.28a7,7,0,0,0,.16,9.71l4.49,4.48a7,7,0,0,0,9.86,0l2.55-2.54Z"/></svg>