<svg id="Layer_1" data-name="Layer 1" xmlns="http://www.w3.org/2000/svg" viewBox="0 0 300 300"><defs><style>.cls-1{fill:#e2204e;}.cls-2{fill:#1b9be2;}</style></defs><path class="cls-1" d="M11.86,181.79a6.34,6.34,0,0,1-6.23-5.2A148.41,148.41,0,0,1,3.23,150a6.34,6.34,0,1,1,12.68,0,135.11,135.11,0,0,0,2.2,24.31,6.36,6.36,0,0,1-5.1,7.38A6.46,6.46,0,0,1,11.86,181.79Z"/><path class="cls-1" d="M150,296.77a145.92,145.92,0,0,1-131.79-82.1,6.34,6.34,0,0,1,11.38-5.59,133.32,133.32,0,0,0,120.41,75c73.94,0,134.09-60.15,134.09-134.09S223.94,15.91,150,15.91a134.41,134.41,0,0,0-122.28,79,6.34,6.34,0,1,1-11.55-5.21A147.1,147.1,0,0,1,150,3.23c80.93,0,146.77,65.84,146.77,146.77S230.93,296.77,150,296.77Z"/><path class="cls-1" d="M67.25,267.51a6.34,6.34,0,0,1-2.51-12.16C225,186.56,253,62.17,253.3,60.92a6.34,6.34,0,0,1,12.41,2.61c-1.12,5.36-29.34,131.94-196,203.47A6.35,6.35,0,0,1,67.25,267.51Z"/><path class="cls-2" d="M63.91,219.87A6.34,6.34,0,0,1,60.79,208c71-39.92,106.75-80.16,124.25-106.88a6.33,6.33,0,1,1,10.6,6.94C177.37,136,140.22,177.88,67,219.06A6.33,6.33,0,0,1,63.91,219.87Z"/><path class="cls-2" d="M202.16,90.07A6.35,6.35,0,0,1,196.44,81c6.1-12.78,7.48-20.57,7.49-20.65a6.34,6.34,0,0,1,12.51,2.07c-.06.37-1.59,9.44-8.55,24A6.34,6.34,0,0,1,202.16,90.07Z"/><path class="cls-2" d="M162.54,278.38A6.34,6.34,0,0,1,159,266.8c28.68-19.5,52.61-39.81,71.11-60.39a6.34,6.34,0,0,1,9.43,8.48c-19.19,21.33-43.89,42.32-73.42,62.4A6.31,6.31,0,0,1,162.54,278.38Z"/><path class="cls-2" d="M250.21,198.07A6.34,6.34,0,0,1,245.09,188c10.89-14.95,14.26-24.15,14.29-24.24a6.34,6.34,0,0,1,12,4.22c-.16.43-3.87,10.83-16,27.48A6.31,6.31,0,0,1,250.21,198.07Z"/><circle class="cls-2" cx="65.78" cy="237.56" r="5.22"/><circle class="cls-2" cx="115.94" cy="267.24" r="5.22"/><circle class="cls-2" cx="136.83" cy="255.12" r="5.22"/><circle class="cls-2" cx="157.1" cy="241.11" r="5.22"/><circle class="cls-2" cx="178.42" cy="224.81" r="5.22"/><circle class="cls-2" cx="198.48" cy="208.1" r="5.22"/><circle class="cls-2" cx="215.2" cy="189.71" r="5.22"/><circle class="cls-2" cx="232.75" cy="170.48" r="5.22"/><circle class="cls-2" cx="247.38" cy="148.33" r="5.22"/><circle class="cls-2" cx="262.01" cy="123.25" r="5.22"/><circle class="cls-2" cx="87.52" cy="227.95" r="5.22"/><circle class="cls-2" cx="108.83" cy="217.5" r="5.22"/><circle class="cls-2" cx="129.52" cy="204.34" r="5.22"/><circle class="cls-2" cx="147.49" cy="190.13" r="5.22"/><circle class="cls-2" cx="165.46" cy="172.15" r="5.22"/><circle class="cls-2" cx="183.02" cy="155.85" r="5.22"/><circle class="cls-2" cx="198.9" cy="135.37" r="5.22"/><circle class="cls-2" cx="212.27" cy="116.15" r="5.22"/><circle class="cls-2" cx="223.98" cy="97.34" r="5.22"/><circle class="cls-2" cx="233.17" cy="73.94" r="5.22"/></svg>