<svg id="Layer_1" data-name="Layer 1" xmlns="http://www.w3.org/2000/svg" viewBox="0 0 300 300"><defs><style>.cls-1{fill:#97e3e7;}.cls-2{fill:#1b9be2;}.cls-3{fill:#d4f9f9;}.cls-4{fill:#deab3a;}.cls-5{fill:#eade90;}.cls-6{fill:#e2204e;}</style></defs><path class="cls-1" d="M25.71,149.84,10.17,211.29a44.77,44.77,0,0,0-.58,10.53l7,62.63L39.05,284,37.14,222a44.1,44.1,0,0,1,1.26-8.25l25.23-41,21.26,38.76,1.25,71.89H108l5.43-71.77A30.7,30.7,0,0,0,108.19,192L80.51,151.51Z"/><path class="cls-2" d="M16.54,290.47a6,6,0,0,1-6-5.36l-7-62.63a50.89,50.89,0,0,1,.63-12.23l15.64-61.88a6.14,6.14,0,0,1,6-4.54l54.8,1.66a6.06,6.06,0,0,1,4.79,2.62l27.67,40.49a36.87,36.87,0,0,1,6.3,23.5L114,283.86a6,6,0,0,1-6,5.57H86.14a6,6,0,0,1-6-5.92l-1.23-70.4L63.33,184.72,44,216a39,39,0,0,0-.88,6.26l1.91,61.55a6,6,0,0,1-5.9,6.2l-22.51.42ZM30.36,156,16,212.77a38.49,38.49,0,0,0-.4,8.66l6.32,56.9,10.92-.2-1.71-56a49.53,49.53,0,0,1,1.43-9.89,5.81,5.81,0,0,1,.72-1.7l25.23-40.94a6.5,6.5,0,0,1,5.28-2.86,6,6,0,0,1,5.12,3.12l21.25,38.76a5.9,5.9,0,0,1,.74,2.79l1.15,66h10.39l5-66.2a24.79,24.79,0,0,0-4.23-15.79l-25.95-38Z"/><path class="cls-3" d="M45.51,142.13l26.66,17.78a10.44,10.44,0,0,1,2.7,14.75h0a10.43,10.43,0,0,1-14.79,2.25L9.25,138.38,27.8,87.74A18.84,18.84,0,0,1,45.68,75.39l45.46.48,11.61,44,47.33,2.41c7.81.4,8.57,1,8.57,8.77h0a14.69,14.69,0,0,1-15.41,14.67l-60.23-3H48"/><path class="cls-2" d="M66.34,185.05a16.24,16.24,0,0,1-9.89-3.35L5.61,143.18a6,6,0,0,1-2-6.87L22.15,85.67a24.88,24.88,0,0,1,23.32-16.3h.28l45.45.49A6,6,0,0,1,97,74.34l10.49,39.77,42.94,2.19c11.07.57,14.28,3.89,14.28,14.78a20.72,20.72,0,0,1-21.73,20.68l-60.23-3H66.31l9.2,6.14a16.45,16.45,0,0,1-6.65,30A18,18,0,0,1,66.34,185.05ZM16.43,136.27l47.29,35.84a4.33,4.33,0,0,0,3.33.85,4.42,4.42,0,0,0,3.68-5.17,4.38,4.38,0,0,0-1.9-2.87L42.17,147.14a6,6,0,0,1,6-10.4H83l60.53,3a8.44,8.44,0,0,0,6.4-2.37,8.57,8.57,0,0,0,2.69-6.28c0-1.15,0-2,0-2.56-1-.1-2.27-.17-2.81-.19l-47.32-2.42a6,6,0,0,1-5.51-4.48L86.49,81.84l-40.87-.43a13.05,13.05,0,0,0-12.17,8.4Z"/><rect class="cls-4" x="140.31" y="173.18" width="10.84" height="114.18"/><rect class="cls-4" x="168.65" y="173.18" width="10.84" height="114.18"/><rect class="cls-4" x="196.99" y="173.18" width="10.84" height="114.18"/><rect class="cls-4" x="145.73" y="167.76" width="27.92" height="9.17"/><rect class="cls-4" x="175.73" y="167.76" width="27.92" height="9.17"/><path class="cls-5" d="M109.06,40.66h-65S37.8,19.2,58.42,16.28,89.89,19,90.3,37.74"/><path class="cls-4" d="M109.06,46.68h-65a6,6,0,0,1-5.78-4.34c-.38-1.29-3.5-12.89,2.51-22.2,2.41-3.74,7.28-8.47,16.8-9.82,13.94-2,23.47-.29,30,5.28,5,4.24,7.85,10.63,8.55,19h12.89a6,6,0,0,1,0,12Zm-59.86-12H84.08c-.5-4.63-1.91-7.86-4.26-9.86-3.64-3.1-10.57-4-20.55-2.54-4.07.57-6.8,2-8.35,4.39S49.08,32.05,49.2,34.64Z"/><path class="cls-5" d="M44.26,43.79S40.09,67.12,55.09,70.87s22.5,1,27.3-7.29S88,44.41,88,44.41l.21-5.21H44.67Z"/><path class="cls-4" d="M66.57,78.58a53.83,53.83,0,0,1-12.94-1.87c-16-4-17.19-22.94-15.35-33.72l.4-4.33a6,6,0,0,1,6-5.47H88.22a6,6,0,0,1,6,6.26L94,44.65c0,.72-1,12.52-6.42,21.93S74.49,78.58,66.57,78.58ZM50.13,45.22c-.36,2.63-2,17.71,6.42,19.82,14.58,3.65,18.07,0,20.62-4.46,3.15-5.48,4.33-12.51,4.7-15.36Zm-5.87-1.43h0Z"/><line class="cls-3" x1="53.22" y1="107.75" x2="45.3" y2="140.68"/><path class="cls-2" d="M45.3,146.69a6.22,6.22,0,0,1-1.41-.16,6,6,0,0,1-4.44-7.26l7.91-32.92a6,6,0,1,1,11.7,2.81l-7.91,32.92A6,6,0,0,1,45.3,146.69Z"/><path class="cls-6" d="M217,153.36a23.11,23.11,0,1,1,23.1-23.1A23.12,23.12,0,0,1,217,153.36Zm0-34.17a11.07,11.07,0,1,0,11.07,11.07A11.09,11.09,0,0,0,217,119.19Z"/><path class="cls-2" d="M290.75,126.69H252.41a6,6,0,0,1,0-12h38.34a6,6,0,0,1,0,12Z"/><path class="cls-2" d="M270.33,151.28H252.41a6,6,0,0,1,0-12h17.92a6,6,0,1,1,0,12Z"/><line class="cls-3" x1="288.25" y1="144.84" x2="287" y2="145.26"/><path class="cls-2" d="M287,151.28a6,6,0,0,1-1.88-11.74l1.25-.41a6,6,0,1,1,3.76,11.43l-1.24.42A6.22,6.22,0,0,1,287,151.28Z"/><line class="cls-3" x1="73.59" y1="119.9" x2="90.26" y2="141.92"/><path class="cls-2" d="M90.26,147.94a6,6,0,0,1-4.8-2.39l-16.67-22a6,6,0,0,1,9.6-7.26l16.67,22a6,6,0,0,1-4.8,9.65Z"/></svg>