<svg id="Layer_1" data-name="Layer 1" xmlns="http://www.w3.org/2000/svg" viewBox="0 0 300 300"><defs><style>.cls-1{fill:#deab3a;}.cls-2{fill:#eade90;}</style></defs><path class="cls-1" d="M111.73,177.56H89.42c-15.55,0-28.19-11.86-28.19-26.43V70.25c0-14.57,12.64-26.43,28.19-26.43h22.31c15.55,0,28.19,11.86,28.19,26.43v80.88C139.92,165.7,127.28,177.56,111.73,177.56ZM89.42,55.41c-8.73,0-15.83,6.66-15.83,14.84v80.88c0,8.18,7.1,14.83,15.83,14.83h22.31c8.73,0,15.83-6.65,15.83-14.83V70.25c0-8.18-7.1-14.84-15.83-14.84Z"/><path class="cls-1" d="M133.14,121.17H67.21a6,6,0,0,1-6.18-5.8V90.65a6,6,0,0,1,6.18-5.8h65.93a6,6,0,0,1,6.18,5.8v24.72A6,6,0,0,1,133.14,121.17ZM73.39,109.58H127V96.44H73.39Z"/><rect class="cls-2" x="79.8" y="9.16" width="38.96" height="39.9"/><path class="cls-1" d="M118.76,54.85h-39a6,6,0,0,1-6.18-5.79V9.16a6,6,0,0,1,6.18-5.8h39a6,6,0,0,1,6.18,5.8v39.9A6,6,0,0,1,118.76,54.85ZM86,43.26h26.6V15H86Z"/><rect class="cls-2" x="79.8" y="170.64" width="38.96" height="77.93"/><path class="cls-1" d="M118.76,254.36h-39a6,6,0,0,1-6.18-5.79V170.64a6,6,0,0,1,6.18-5.8h39a6,6,0,0,1,6.18,5.8v77.93A6,6,0,0,1,118.76,254.36ZM86,242.77h26.6V176.43H86Z"/><path class="cls-1" d="M209.24,220.27H186.92c-15.54,0-28.19-11.86-28.19-26.43V113c0-14.58,12.65-26.43,28.19-26.43h22.32c15.54,0,28.19,11.85,28.19,26.43v80.87C237.43,208.41,224.78,220.27,209.24,220.27ZM186.92,98.13c-8.73,0-15.83,6.65-15.83,14.84v80.87c0,8.18,7.1,14.84,15.83,14.84h22.32c8.73,0,15.83-6.66,15.83-14.84V113c0-8.19-7.1-14.84-15.83-14.84Z"/><path class="cls-1" d="M230.65,163.88H164.71a6,6,0,0,1-6.18-5.8V133.36a6,6,0,0,1,6.18-5.8h65.94a6,6,0,0,1,6.18,5.8v24.72A6,6,0,0,1,230.65,163.88Zm-59.76-11.59h53.58V139.15H170.89Z"/><rect class="cls-2" x="177.3" y="51.87" width="38.96" height="39.9"/><path class="cls-1" d="M216.26,97.56h-39a6,6,0,0,1-6.18-5.79V51.87a6,6,0,0,1,6.18-5.8h39a6,6,0,0,1,6.18,5.8v39.9A6,6,0,0,1,216.26,97.56ZM183.48,86h26.6V57.66h-26.6Z"/><rect class="cls-2" x="177.3" y="213.35" width="38.96" height="77.93"/><path class="cls-1" d="M216.26,297.07h-39a6,6,0,0,1-6.18-5.79V213.35a6,6,0,0,1,6.18-5.8h39a6,6,0,0,1,6.18,5.8v77.93A6,6,0,0,1,216.26,297.07Zm-32.78-11.59h26.6V219.14h-26.6Z"/></svg>