<svg id="Layer_1" data-name="Layer 1" xmlns="http://www.w3.org/2000/svg" viewBox="0 0 300 300"><defs><style>.cls-1{fill:#1b9be2;}.cls-2{fill:#eade90;}</style></defs><path class="cls-1" d="M290.93,241.25H9.07a5.89,5.89,0,0,1,0-11.78H290.93a5.89,5.89,0,0,1,0,11.78Z"/><path class="cls-2" d="M42.14,184.84H66.42a2.48,2.48,0,0,1,2.48,2.48v45.38a0,0,0,0,1,0,0H39.65a0,0,0,0,1,0,0V187.33A2.48,2.48,0,0,1,42.14,184.84Z"/><path class="cls-2" d="M91.5,109.06h24.28a2.48,2.48,0,0,1,2.48,2.48V232.71a0,0,0,0,1,0,0H89a0,0,0,0,1,0,0V111.55A2.48,2.48,0,0,1,91.5,109.06Z"/><path class="cls-2" d="M181.9,70.51h24.28A2.48,2.48,0,0,1,208.67,73V232.71a0,0,0,0,1,0,0H179.42a0,0,0,0,1,0,0V73a2.48,2.48,0,0,1,2.48-2.48Z"/><path class="cls-2" d="M135.79,142.3h24.28a2.48,2.48,0,0,1,2.48,2.48v87.92a0,0,0,0,1,0,0H133.31a0,0,0,0,1,0,0V144.78a2.48,2.48,0,0,1,2.48-2.48Z"/><path class="cls-2" d="M232.25,20h24.28A2.48,2.48,0,0,1,259,22.45V234.61a0,0,0,0,1,0,0H229.77a0,0,0,0,1,0,0V22.45A2.48,2.48,0,0,1,232.25,20Z"/></svg>